<?xml version="1.0" encoding="UTF-8"?>
<svg width="1024px" height="241px" viewBox="0 0 1024 241" version="1.1" xmlns="http://www.w3.org/2000/svg" xmlns:xlink="http://www.w3.org/1999/xlink">
    <!-- Generator: Sketch 52.5 (67469) - http://www.bohemiancoding.com/sketch -->
    <title>pin-bg-down</title>
    <desc>Created with Sketch.</desc>
    <g id="Page-1" stroke="none" stroke-width="1" fill="none" fill-rule="evenodd">
        <g id="Desktop" transform="translate(0.000000, -579.000000)">
            <g id="pin-bg-down" transform="translate(0.000000, 580.000000)">
                <path d="M0,0.41794956 L1024,0.41794956 L1024,121.367734 C961.541029,186.076623 889.269451,219.137431 807.185265,220.550157 C684.058987,222.669246 631.259222,133.250966 512,130.179609 C392.740778,127.108252 381.906812,171.547153 256.99675,173.032666 C173.723375,174.023007 88.0577919,161.768335 0,136.268649 L0,0.41794956 Z" id="Path" stroke="#B3DADE" fill="#B3DADE"></path>
                <path d="M870.065204,190.130408 C866.866106,185.518491 865,179.969908 865,174 C865,157.983742 878.431458,145 895,145 C911.568542,145 925,157.983742 925,174 C925,179.969908 923.133894,185.518491 919.934796,190.130408 L895,240 L870.065204,190.130408 Z M895.5,190 C902.403559,190 908,184.403559 908,177.5 C908,170.596441 902.403559,165 895.5,165 C888.596441,165 883,170.596441 883,177.5 C883,184.403559 888.596441,190 895.5,190 Z" id="Combined-Shape" fill="#FEA400" opacity="0.5"></path>
                <path d="M80.0652039,57.1304079 C76.8661058,52.5184911 75,46.9699075 75,41 C75,24.9837423 88.4314575,12 105,12 C121.568542,12 135,24.9837423 135,41 C135,46.9699075 133.133894,52.5184911 129.934796,57.1304079 L105,107 L80.0652039,57.1304079 Z M105.5,57 C112.403559,57 118,51.4035594 118,44.5 C118,37.5964406 112.403559,32 105.5,32 C98.5964406,32 93,37.5964406 93,44.5 C93,51.4035594 98.5964406,57 105.5,57 Z" id="Combined-Shape" fill-opacity="0.5" fill="#FEA400"></path>
            </g>
        </g>
    </g>
</svg>