<?xml version="1.0" encoding="UTF-8"?>
<svg width="1024px" height="173px" viewBox="0 0 1024 173" version="1.1" xmlns="http://www.w3.org/2000/svg" xmlns:xlink="http://www.w3.org/1999/xlink">
    <!-- Generator: Sketch 52.5 (67469) - http://www.bohemiancoding.com/sketch -->
    <title>pin-bg-up</title>
    <desc>Created with Sketch.</desc>
    <g id="Page-1" stroke="none" stroke-width="1" fill="none" fill-rule="evenodd">
        <g id="Desktop" transform="translate(0.000000, -97.000000)">
            <g id="pin-bg-up" transform="translate(0.000000, 98.000000)">
                <path d="M0,0 L1024,0 L1024,94.0316811 C961.541029,144.339217 889.269451,170.042143 807.185265,171.140458 C684.058987,172.787931 631.259222,103.270228 512,100.88242 C392.740778,98.4946125 381.906812,133.043368 256.99675,134.198271 C173.723375,134.968206 88.0577919,125.440885 0,105.616308 L0,0 Z" id="Path" stroke="#B3DADE" fill="#B3DADE" transform="translate(512.000000, 85.584640) scale(1, -1) translate(-512.000000, -85.584640) "></path>
                <path d="M66.0652039,55.1304079 C62.8661058,50.5184911 61,44.9699075 61,39 C61,22.9837423 74.4314575,10 91,10 C107.568542,10 121,22.9837423 121,39 C121,44.9699075 119.133894,50.5184911 115.934796,55.1304079 L91,105 L66.0652039,55.1304079 Z M91.5,55 C98.4035594,55 104,49.4035594 104,42.5 C104,35.5964406 98.4035594,30 91.5,30 C84.5964406,30 79,35.5964406 79,42.5 C79,49.4035594 84.5964406,55 91.5,55 Z" id="Combined-Shape" fill-opacity="0.5" fill="#FEA400"></path>
                <path d="M855.065204,112.130408 C851.866106,107.518491 850,101.969908 850,96 C850,79.9837423 863.431458,67 880,67 C896.568542,67 910,79.9837423 910,96 C910,101.969908 908.133894,107.518491 904.934796,112.130408 L880,162 L855.065204,112.130408 Z M880.5,112 C887.403559,112 893,106.403559 893,99.5 C893,92.5964406 887.403559,87 880.5,87 C873.596441,87 868,92.5964406 868,99.5 C868,106.403559 873.596441,112 880.5,112 Z" id="Combined-Shape" fill-opacity="0.5" fill="#FEA400"></path>
            </g>
        </g>
    </g>
</svg>